<svg xmlns="http://www.w3.org/2000/svg" width="200" height="158.491" viewBox="0 0 200 158.491"><path d="M53.585,158.491a7.547,7.547,0,0,1-7.547-7.548v-4.528a7.547,7.547,0,0,1,7.547-7.547H64.906v-9.812H7.547A7.547,7.547,0,0,1,0,121.51V7.547A7.547,7.547,0,0,1,7.547,0H192.453A7.547,7.547,0,0,1,200,7.547V121.51a7.547,7.547,0,0,1-7.547,7.547H135.095v9.812h11.321a7.547,7.547,0,0,1,7.547,7.547v4.528a7.548,7.548,0,0,1-7.547,7.548Zm0-7.548h92.831v-4.528H53.585Zm18.868-12.075h55.094v-9.812H72.453ZM7.547,121.51H192.453V108.3H7.547Zm0-20.755H192.453V7.547H7.547Zm126.038-5.66a7.547,7.547,0,0,1-7.547-7.547V73.962a7.547,7.547,0,0,1,7.547-7.547h4.528V58.6H104.018v7.811h3.906a7.547,7.547,0,0,1,7.547,7.547V87.547a7.547,7.547,0,0,1-7.547,7.547H92.076a7.548,7.548,0,0,1-7.548-7.547V73.962a7.547,7.547,0,0,1,7.548-7.547h4.4V58.6H61.887v7.811h4.529a7.547,7.547,0,0,1,7.547,7.547V87.547a7.547,7.547,0,0,1-7.547,7.547h-16.6a7.547,7.547,0,0,1-7.547-7.547V73.962a7.547,7.547,0,0,1,7.547-7.547H54.34V54.831a3.773,3.773,0,0,1,3.774-3.773H96.471V42.264H88.3a7.547,7.547,0,0,1-7.547-7.547V21.132A7.547,7.547,0,0,1,88.3,13.585h23.4a7.548,7.548,0,0,1,7.548,7.547V34.717a7.547,7.547,0,0,1-7.548,7.547h-7.68v8.794h37.869a3.773,3.773,0,0,1,3.773,3.773V66.415h4.529a7.547,7.547,0,0,1,7.547,7.547V87.547a7.547,7.547,0,0,1-7.547,7.547Zm0-7.547h16.6V73.962h-16.6Zm-41.509,0h15.849V73.962H92.076Zm-42.265,0h16.6V73.962h-16.6ZM88.3,34.717h23.4V21.132H88.3Z"/></svg>